<svg xmlns="http://www.w3.org/2000/svg" xmlns:xlink="http://www.w3.org/1999/xlink" width="500" zoomAndPan="magnify" viewBox="0 0 375 374.999991" height="500" preserveAspectRatio="xMidYMid meet" version="1.0"><defs><clipPath id="cd8ca0149a"><path d="M 136.261719 158 L 374.761719 158 L 374.761719 307.253906 L 136.261719 307.253906 Z M 136.261719 158 " clip-rule="nonzero"/></clipPath><clipPath id="73c699919d"><path d="M 136.261719 56.753906 L 359 56.753906 L 359 218 L 136.261719 218 Z M 136.261719 56.753906 " clip-rule="nonzero"/></clipPath><clipPath id="c2ae0d000e"><path d="M 0 105.65625 L 155 105.65625 L 155 317.90625 L 0 317.90625 Z M 0 105.65625 " clip-rule="nonzero"/></clipPath><clipPath id="8b6636548e"><path d="M 83 152 L 212 152 L 212 317.90625 L 83 317.90625 Z M 83 152 " clip-rule="nonzero"/></clipPath></defs><g clip-path="url(#cd8ca0149a)"><path fill="#60af87" d="M 374.644531 306.5 C 373.71875 304.996094 372.589844 303.601562 371.511719 302.203125 C 351.476562 276.078125 331.441406 249.960938 311.402344 223.847656 C 295.464844 203.058594 279.550781 182.25 263.5625 161.488281 C 260.664062 157.730469 259.007812 157.53125 255.148438 160.054688 C 234.078125 173.777344 213.035156 187.53125 191.976562 201.253906 C 174.183594 212.859375 156.402344 224.457031 138.574219 235.996094 C 137.730469 236.546875 136.964844 236.921875 136.261719 237.15625 L 136.261719 284.433594 L 177.941406 258.542969 C 180.828125 256.664062 183.703125 254.785156 186.589844 252.898438 C 204.667969 241.089844 222.753906 229.28125 240.839844 217.484375 C 245.582031 214.398438 247.179688 214.515625 249.878906 218.074219 C 265.019531 237.980469 280.136719 257.910156 295.253906 277.839844 C 302.707031 287.664062 310.066406 297.554688 317.625 307.296875 L 375.042969 307.296875 C 374.9375 307.039062 374.808594 306.769531 374.644531 306.5 Z M 374.644531 306.5 " fill-opacity="1" fill-rule="nonzero"/></g><g clip-path="url(#73c699919d)"><path fill="#60af87" d="M 138.269531 217.859375 C 140.371094 218.367188 143.257812 217.25 145.300781 216.042969 C 151.167969 212.542969 156.789062 208.625 162.519531 204.890625 C 169.558594 200.3125 176.601562 195.738281 183.644531 191.160156 L 183.644531 191.078125 C 236.050781 157.097656 263.84375 139.035156 291.628906 120.96875 C 295.042969 118.753906 297.15625 119.070312 299.351562 122.4375 C 302.191406 126.78125 304.773438 131.300781 307.636719 135.617188 C 310.3125 139.644531 313.714844 139.480469 316.15625 135.347656 C 318.550781 131.289062 320.898438 127.191406 323.269531 123.117188 C 334.433594 103.953125 345.617188 84.785156 356.734375 65.59375 C 359.480469 60.839844 357.953125 57.671875 352.847656 57.636719 C 324.960938 57.402344 297.074219 57.390625 269.199219 56.957031 C 263.773438 56.875 262.074219 61.214844 264.75 65.230469 C 267.566406 69.445312 270.089844 73.847656 272.707031 78.1875 C 275.066406 82.109375 274.679688 83.894531 270.839844 86.394531 C 255.429688 96.453125 240.019531 106.511719 224.585938 116.546875 C 216.671875 121.6875 208.761719 126.839844 183.621094 143.082031 L 183.621094 134.046875 C 183.503906 132.542969 183.515625 131.03125 183.515625 129.527344 C 183.515625 107.894531 183.539062 86.277344 183.550781 64.644531 C 183.550781 63.796875 183.527344 63.070312 183.46875 62.425781 L 136.261719 62.425781 L 136.261719 216.300781 C 136.625 217.039062 137.234375 217.613281 138.269531 217.859375 Z M 138.269531 217.859375 " fill-opacity="1" fill-rule="nonzero"/></g><path fill="#af6088" d="M 280.039062 186.285156 C 278.96875 185.664062 277.871094 185.097656 276.742188 184.585938 C 275.617188 184.074219 274.46875 183.617188 273.296875 183.21875 C 272.125 182.820312 270.9375 182.480469 269.730469 182.195312 C 268.527344 181.914062 267.3125 181.691406 266.085938 181.527344 C 264.855469 181.363281 263.625 181.261719 262.390625 181.21875 C 261.152344 181.175781 259.914062 181.195312 258.679688 181.273438 C 257.445312 181.355469 256.21875 181.492188 254.996094 181.691406 C 253.773438 181.890625 252.566406 182.152344 251.371094 182.46875 C 250.175781 182.789062 248.996094 183.164062 247.839844 183.597656 C 246.679688 184.03125 245.542969 184.523438 244.433594 185.066406 C 243.320312 185.613281 242.242188 186.210938 241.1875 186.863281 C 240.136719 187.515625 239.117188 188.214844 238.136719 188.96875 C 237.152344 189.71875 236.207031 190.515625 235.304688 191.359375 C 234.398438 192.207031 233.535156 193.089844 232.71875 194.019531 C 231.902344 194.949219 231.128906 195.914062 230.40625 196.921875 C 229.683594 197.925781 229.011719 198.960938 228.390625 200.03125 L 197.226562 254.105469 C 196.605469 255.175781 196.039062 256.277344 195.527344 257.402344 C 195.015625 258.53125 194.558594 259.679688 194.160156 260.851562 C 193.761719 262.023438 193.421875 263.210938 193.136719 264.417969 C 192.855469 265.625 192.632812 266.839844 192.472656 268.066406 C 192.308594 269.292969 192.207031 270.527344 192.164062 271.765625 C 192.121094 273 192.140625 274.238281 192.222656 275.472656 C 192.300781 276.707031 192.441406 277.9375 192.640625 279.160156 C 192.84375 280.378906 193.101562 281.589844 193.421875 282.785156 C 193.742188 283.980469 194.117188 285.160156 194.554688 286.320312 C 194.988281 287.476562 195.480469 288.613281 196.027344 289.722656 C 196.574219 290.835938 197.171875 291.914062 197.828125 292.96875 C 198.480469 294.019531 199.183594 295.039062 199.933594 296.019531 C 200.6875 297.003906 201.488281 297.945312 202.332031 298.851562 C 203.179688 299.753906 204.066406 300.617188 204.996094 301.433594 C 205.925781 302.25 206.894531 303.019531 207.902344 303.742188 C 208.90625 304.460938 209.945312 305.132812 211.019531 305.753906 C 212.089844 306.375 213.191406 306.941406 214.320312 307.453125 C 215.449219 307.964844 216.597656 308.421875 217.773438 308.820312 C 218.945312 309.21875 220.136719 309.5625 221.34375 309.84375 C 222.550781 310.125 223.769531 310.347656 224.996094 310.511719 C 226.226562 310.671875 227.460938 310.773438 228.699219 310.816406 C 229.9375 310.855469 231.175781 310.835938 232.410156 310.757812 C 233.648438 310.675781 234.878906 310.535156 236.101562 310.332031 C 237.324219 310.132812 238.535156 309.871094 239.730469 309.550781 C 240.929688 309.230469 242.105469 308.851562 243.265625 308.414062 C 244.425781 307.980469 245.5625 307.488281 246.675781 306.9375 C 247.785156 306.390625 248.867188 305.789062 249.921875 305.136719 C 250.972656 304.480469 251.992188 303.777344 252.976562 303.023438 C 253.957031 302.265625 254.902344 301.464844 255.808594 300.617188 C 256.710938 299.773438 257.574219 298.882812 258.390625 297.949219 C 259.207031 297.019531 259.976562 296.046875 260.699219 295.039062 C 261.417969 294.03125 262.089844 292.992188 262.710938 291.917969 L 293.894531 237.933594 C 294.515625 236.859375 295.078125 235.757812 295.589844 234.628906 C 296.097656 233.503906 296.550781 232.351562 296.949219 231.179688 C 297.347656 230.007812 297.683594 228.816406 297.964844 227.609375 C 298.246094 226.40625 298.464844 225.1875 298.625 223.960938 C 298.789062 222.730469 298.886719 221.5 298.929688 220.261719 C 298.96875 219.023438 298.945312 217.789062 298.863281 216.550781 C 298.785156 215.316406 298.640625 214.089844 298.441406 212.867188 C 298.238281 211.644531 297.976562 210.4375 297.65625 209.242188 C 297.335938 208.042969 296.957031 206.867188 296.519531 205.707031 C 296.082031 204.550781 295.589844 203.414062 295.042969 202.304688 C 294.496094 201.195312 293.894531 200.113281 293.242188 199.0625 C 292.585938 198.011719 291.882812 196.992188 291.128906 196.011719 C 290.375 195.03125 289.574219 194.085938 288.730469 193.183594 C 287.882812 192.277344 286.992188 191.417969 286.0625 190.601562 C 285.132812 189.785156 284.164062 189.015625 283.15625 188.296875 C 282.152344 187.574219 281.113281 186.902344 280.039062 186.285156 Z M 280.039062 186.285156 " fill-opacity="1" fill-rule="evenodd"/><path fill="#af6088" d="M 158.875 157.84375 C 159.949219 157.222656 161.046875 156.660156 162.175781 156.148438 C 163.304688 155.636719 164.453125 155.183594 165.628906 154.785156 C 166.800781 154.386719 167.988281 154.046875 169.195312 153.765625 C 170.402344 153.484375 171.617188 153.261719 172.84375 153.101562 C 174.074219 152.941406 175.304688 152.839844 176.542969 152.796875 C 177.78125 152.757812 179.015625 152.777344 180.253906 152.859375 C 181.488281 152.941406 182.714844 153.082031 183.9375 153.28125 C 185.160156 153.484375 186.367188 153.746094 187.566406 154.066406 C 188.761719 154.386719 189.9375 154.765625 191.097656 155.199219 C 192.257812 155.636719 193.390625 156.128906 194.5 156.675781 C 195.613281 157.222656 196.691406 157.824219 197.746094 158.476562 C 198.796875 159.132812 199.8125 159.835938 200.796875 160.589844 C 201.777344 161.34375 202.722656 162.140625 203.625 162.988281 C 204.53125 163.835938 205.390625 164.722656 206.207031 165.652344 C 207.023438 166.585938 207.792969 167.554688 208.511719 168.558594 C 209.234375 169.566406 209.90625 170.605469 210.523438 171.675781 L 258.203125 254.105469 C 258.820312 255.179688 259.386719 256.28125 259.894531 257.410156 C 260.402344 258.539062 260.855469 259.691406 261.25 260.863281 C 261.648438 262.039062 261.984375 263.230469 262.265625 264.4375 C 262.542969 265.644531 262.761719 266.859375 262.921875 268.089844 C 263.082031 269.320312 263.179688 270.550781 263.21875 271.789062 C 263.253906 273.027344 263.234375 274.265625 263.148438 275.5 C 263.066406 276.738281 262.921875 277.964844 262.71875 279.1875 C 262.515625 280.410156 262.25 281.621094 261.929688 282.816406 C 261.605469 284.011719 261.222656 285.1875 260.785156 286.347656 C 260.347656 287.507812 259.851562 288.640625 259.304688 289.75 C 258.753906 290.859375 258.148438 291.941406 257.496094 292.992188 C 256.839844 294.042969 256.132812 295.058594 255.375 296.039062 C 254.621094 297.023438 253.816406 297.964844 252.96875 298.867188 C 252.121094 299.769531 251.230469 300.628906 250.296875 301.445312 C 249.363281 302.257812 248.394531 303.027344 247.386719 303.746094 C 246.378906 304.464844 245.335938 305.136719 244.261719 305.753906 C 243.191406 306.371094 242.089844 306.9375 240.964844 307.449219 C 239.835938 307.960938 238.683594 308.414062 237.511719 308.8125 C 236.339844 309.210938 235.152344 309.550781 233.945312 309.832031 C 232.738281 310.113281 231.523438 310.332031 230.292969 310.496094 C 229.066406 310.65625 227.835938 310.757812 226.597656 310.796875 C 225.359375 310.839844 224.121094 310.816406 222.886719 310.738281 C 221.652344 310.65625 220.421875 310.515625 219.199219 310.3125 C 217.980469 310.113281 216.769531 309.851562 215.574219 309.53125 C 214.378906 309.210938 213.199219 308.832031 212.042969 308.394531 C 210.882812 307.960938 209.75 307.46875 208.636719 306.921875 C 207.527344 306.371094 206.445312 305.773438 205.394531 305.117188 C 204.34375 304.464844 203.324219 303.761719 202.34375 303.007812 C 201.359375 302.253906 200.417969 301.453125 199.515625 300.609375 C 198.609375 299.761719 197.75 298.871094 196.933594 297.941406 C 196.117188 297.011719 195.347656 296.042969 194.625 295.035156 C 193.90625 294.03125 193.234375 292.992188 192.613281 291.917969 L 145.019531 209.492188 C 144.402344 208.417969 143.835938 207.320312 143.324219 206.191406 C 142.8125 205.0625 142.359375 203.910156 141.960938 202.738281 C 141.5625 201.566406 141.222656 200.375 140.941406 199.171875 C 140.660156 197.964844 140.4375 196.746094 140.277344 195.519531 C 140.113281 194.292969 140.011719 193.058594 139.972656 191.820312 C 139.933594 190.582031 139.953125 189.34375 140.035156 188.109375 C 140.117188 186.875 140.257812 185.644531 140.460938 184.421875 C 140.660156 183.199219 140.921875 181.992188 141.242188 180.796875 C 141.5625 179.597656 141.941406 178.421875 142.378906 177.261719 C 142.816406 176.101562 143.308594 174.96875 143.855469 173.859375 C 144.40625 172.746094 145.007812 171.667969 145.660156 170.613281 C 146.316406 169.5625 147.019531 168.546875 147.777344 167.5625 C 148.53125 166.582031 149.332031 165.640625 150.179688 164.734375 C 151.023438 163.832031 151.914062 162.972656 152.847656 162.15625 C 153.777344 161.339844 154.746094 160.570312 155.753906 159.851562 C 156.761719 159.128906 157.804688 158.460938 158.875 157.84375 Z M 158.875 157.84375 " fill-opacity="1" fill-rule="evenodd"/><g clip-path="url(#c2ae0d000e)"><path fill="#af6088" d="M 18.988281 110.71875 C 20.058594 110.101562 21.160156 109.539062 22.289062 109.027344 C 23.417969 108.519531 24.566406 108.0625 25.742188 107.667969 C 26.914062 107.269531 28.101562 106.929688 29.308594 106.652344 C 30.515625 106.371094 31.730469 106.148438 32.960938 105.988281 C 34.1875 105.828125 35.421875 105.726562 36.65625 105.6875 C 37.894531 105.648438 39.132812 105.667969 40.367188 105.75 C 41.601562 105.832031 42.832031 105.972656 44.050781 106.175781 C 45.273438 106.378906 46.484375 106.640625 47.679688 106.960938 C 48.875 107.28125 50.050781 107.660156 51.210938 108.097656 C 52.371094 108.53125 53.503906 109.023438 54.613281 109.574219 C 55.726562 110.121094 56.804688 110.722656 57.855469 111.375 C 58.910156 112.027344 59.925781 112.734375 60.90625 113.488281 C 61.890625 114.242188 62.832031 115.039062 63.738281 115.886719 C 64.640625 116.734375 65.5 117.621094 66.316406 118.550781 C 67.132812 119.484375 67.902344 120.453125 68.625 121.457031 C 69.347656 122.464844 70.015625 123.503906 70.636719 124.574219 L 149.71875 261.527344 C 150.335938 262.597656 150.902344 263.695312 151.417969 264.824219 C 151.929688 265.949219 152.386719 267.097656 152.785156 268.269531 C 153.183594 269.441406 153.523438 270.632812 153.808594 271.835938 C 154.089844 273.042969 154.3125 274.257812 154.476562 275.484375 C 154.640625 276.710938 154.742188 277.945312 154.785156 279.179688 C 154.828125 280.417969 154.808594 281.65625 154.730469 282.890625 C 154.648438 284.125 154.507812 285.355469 154.308594 286.574219 C 154.109375 287.796875 153.851562 289.007812 153.53125 290.203125 C 153.210938 291.398438 152.835938 292.574219 152.402344 293.734375 C 151.964844 294.894531 151.476562 296.03125 150.929688 297.140625 C 150.382812 298.25 149.785156 299.332031 149.132812 300.386719 C 148.480469 301.4375 147.777344 302.453125 147.023438 303.4375 C 146.273438 304.421875 145.472656 305.363281 144.628906 306.269531 C 143.78125 307.171875 142.894531 308.035156 141.964844 308.851562 C 141.035156 309.667969 140.066406 310.4375 139.0625 311.160156 C 138.058594 311.882812 137.019531 312.554688 135.949219 313.175781 C 134.875 313.792969 133.773438 314.359375 132.648438 314.871094 C 131.519531 315.378906 130.367188 315.835938 129.195312 316.234375 C 128.023438 316.628906 126.835938 316.96875 125.628906 317.25 C 124.421875 317.53125 123.207031 317.753906 121.980469 317.914062 C 120.75 318.078125 119.519531 318.179688 118.28125 318.21875 C 117.042969 318.257812 115.808594 318.238281 114.570312 318.160156 C 113.335938 318.078125 112.105469 317.9375 110.886719 317.734375 C 109.664062 317.53125 108.453125 317.273438 107.257812 316.953125 C 106.0625 316.632812 104.886719 316.253906 103.726562 315.816406 C 102.566406 315.382812 101.433594 314.890625 100.320312 314.339844 C 99.210938 313.792969 98.128906 313.195312 97.078125 312.539062 C 96.027344 311.886719 95.011719 311.183594 94.027344 310.429688 C 93.046875 309.675781 92.101562 308.875 91.199219 308.027344 C 90.292969 307.183594 89.433594 306.292969 88.617188 305.363281 C 87.800781 304.433594 87.03125 303.464844 86.308594 302.457031 C 85.589844 301.453125 84.917969 300.410156 84.300781 299.339844 L 5.109375 162.390625 C 4.492188 161.316406 3.925781 160.214844 3.414062 159.089844 C 2.902344 157.960938 2.449219 156.808594 2.050781 155.636719 C 1.652344 154.464844 1.3125 153.273438 1.03125 152.066406 C 0.75 150.863281 0.53125 149.644531 0.367188 148.417969 C 0.207031 147.1875 0.105469 145.957031 0.0625 144.71875 C 0.0234375 143.480469 0.0429688 142.242188 0.125 141.007812 C 0.207031 139.769531 0.347656 138.542969 0.546875 137.320312 C 0.75 136.097656 1.011719 134.886719 1.332031 133.691406 C 1.652344 132.496094 2.03125 131.316406 2.464844 130.15625 C 2.902344 128.996094 3.394531 127.863281 3.941406 126.75 C 4.488281 125.640625 5.089844 124.558594 5.742188 123.507812 C 6.398438 122.453125 7.101562 121.4375 7.855469 120.453125 C 8.609375 119.472656 9.40625 118.527344 10.253906 117.625 C 11.101562 116.71875 11.988281 115.859375 12.921875 115.042969 C 13.851562 114.222656 14.820312 113.453125 15.828125 112.734375 C 16.832031 112.011719 17.871094 111.339844 18.945312 110.71875 Z M 18.988281 110.71875 " fill-opacity="1" fill-rule="evenodd"/></g><g clip-path="url(#8b6636548e)"><path fill="#af6088" d="M 192.335938 157.84375 C 191.261719 157.222656 190.164062 156.660156 189.035156 156.148438 C 187.90625 155.636719 186.757812 155.183594 185.585938 154.785156 C 184.414062 154.386719 183.222656 154.046875 182.015625 153.765625 C 180.8125 153.484375 179.59375 153.261719 178.367188 153.101562 C 177.140625 152.941406 175.90625 152.839844 174.667969 152.796875 C 173.433594 152.757812 172.195312 152.777344 170.960938 152.859375 C 169.722656 152.941406 168.496094 153.082031 167.273438 153.28125 C 166.050781 153.484375 164.84375 153.746094 163.648438 154.066406 C 162.449219 154.386719 161.273438 154.765625 160.113281 155.199219 C 158.957031 155.636719 157.820312 156.128906 156.710938 156.675781 C 155.601562 157.222656 154.519531 157.824219 153.46875 158.476562 C 152.414062 159.132812 151.398438 159.835938 150.417969 160.589844 C 149.433594 161.34375 148.492188 162.140625 147.585938 162.988281 C 146.683594 163.835938 145.824219 164.722656 145.003906 165.652344 C 144.1875 166.585938 143.421875 167.554688 142.699219 168.558594 C 141.976562 169.566406 141.308594 170.605469 140.6875 171.675781 L 88.761719 261.527344 C 88.140625 262.597656 87.574219 263.699219 87.066406 264.824219 C 86.554688 265.953125 86.101562 267.105469 85.703125 268.277344 C 85.304688 269.449219 84.964844 270.636719 84.683594 271.84375 C 84.402344 273.050781 84.179688 274.265625 84.019531 275.496094 C 83.855469 276.722656 83.757812 277.953125 83.714844 279.191406 C 83.675781 280.429688 83.695312 281.667969 83.777344 282.902344 C 83.855469 284.136719 84 285.367188 84.199219 286.589844 C 84.402344 287.808594 84.664062 289.019531 84.984375 290.214844 C 85.304688 291.410156 85.679688 292.589844 86.117188 293.746094 C 86.554688 294.90625 87.046875 296.039062 87.59375 297.152344 C 88.140625 298.261719 88.742188 299.34375 89.394531 300.394531 C 90.046875 301.445312 90.753906 302.464844 91.503906 303.445312 C 92.257812 304.429688 93.058594 305.371094 93.90625 306.273438 C 94.75 307.179688 95.640625 308.039062 96.570312 308.855469 C 97.5 309.671875 98.46875 310.441406 99.476562 311.164062 C 100.484375 311.882812 101.523438 312.554688 102.59375 313.175781 C 103.667969 313.796875 104.769531 314.363281 105.898438 314.878906 C 107.027344 315.390625 108.175781 315.847656 109.351562 316.25 C 110.523438 316.652344 111.714844 316.992188 112.921875 317.277344 C 114.128906 317.558594 115.347656 317.78125 116.578125 317.945312 C 117.808594 318.109375 119.042969 318.210938 120.28125 318.253906 C 121.519531 318.296875 122.761719 318.277344 123.996094 318.195312 C 125.234375 318.117188 126.464844 317.976562 127.691406 317.773438 C 128.914062 317.574219 130.125 317.3125 131.324219 316.992188 C 132.519531 316.671875 133.699219 316.292969 134.859375 315.855469 C 136.023438 315.417969 137.160156 314.925781 138.269531 314.378906 C 139.382812 313.828125 140.464844 313.226562 141.519531 312.570312 C 142.570312 311.917969 143.589844 311.210938 144.574219 310.457031 C 145.558594 309.699219 146.503906 308.898438 147.40625 308.050781 C 148.3125 307.203125 149.171875 306.3125 149.988281 305.378906 C 150.804688 304.445312 151.574219 303.472656 152.296875 302.464844 C 153.019531 301.457031 153.6875 300.414062 154.308594 299.339844 L 206.191406 209.492188 C 206.8125 208.417969 207.375 207.316406 207.886719 206.191406 C 208.398438 205.0625 208.851562 203.910156 209.25 202.738281 C 209.644531 201.566406 209.984375 200.375 210.265625 199.171875 C 210.546875 197.964844 210.769531 196.746094 210.929688 195.519531 C 211.089844 194.292969 211.191406 193.058594 211.230469 191.820312 C 211.273438 190.582031 211.25 189.347656 211.167969 188.109375 C 211.089844 186.875 210.945312 185.644531 210.746094 184.425781 C 210.542969 183.203125 210.28125 181.992188 209.960938 180.796875 C 209.640625 179.601562 209.261719 178.425781 208.824219 177.265625 C 208.386719 176.105469 207.894531 174.972656 207.347656 173.859375 C 206.800781 172.75 206.199219 171.667969 205.542969 170.617188 C 204.890625 169.566406 204.183594 168.550781 203.429688 167.566406 C 202.675781 166.585938 201.875 165.640625 201.03125 164.738281 C 200.183594 163.835938 199.292969 162.976562 198.363281 162.160156 C 197.429688 161.34375 196.460938 160.574219 195.457031 159.851562 C 194.449219 159.132812 193.410156 158.460938 192.335938 157.84375 Z M 192.335938 157.84375 " fill-opacity="1" fill-rule="evenodd"/></g></svg>